<svg viewBox="0 0 551.03 551.03" xmlns="http://www.w3.org/2000/svg"><linearGradient id="a" x1="275.52" x2="275.52" y1="4.57" y2="549.72" gradientTransform="matrix(1 0 0 -1 0 554)" gradientUnits="userSpaceOnUse"><stop stop-color="#E09B3D" offset="0"/><stop stop-color="#C74C4D" offset=".3"/><stop stop-color="#C21975" offset=".6"/><stop stop-color="#7024C4" offset="1"/></linearGradient><path d="m386.88 0h-222.72c-90.516 0-164.16 73.64-164.16 164.16v222.72c0 90.516 73.64 164.16 164.16 164.16h222.72c90.516 0 164.16-73.64 164.16-164.16v-222.72c-1e-3 -90.516-73.641-164.16-164.16-164.16zm108.72 386.88c0 60.045-48.677 108.72-108.72 108.72h-222.72c-60.045 0-108.72-48.677-108.72-108.72v-222.72c0-60.046 48.677-108.72 108.72-108.72h222.72c60.045 0 108.72 48.676 108.72 108.72v222.72z" fill="url(#a)"/><path d="m275.52 133c-78.584 0-142.52 63.933-142.52 142.52s63.933 142.52 142.52 142.52 142.52-63.933 142.52-142.52-63.933-142.52-142.52-142.52zm0 229.6c-48.095 0-87.083-38.988-87.083-87.083s38.989-87.083 87.083-87.083c48.095 0 87.083 38.988 87.083 87.083 0 48.094-38.989 87.083-87.083 87.083z" fill="url(#a)"/><linearGradient id="b" x1="418.31" x2="418.31" y1="4.57" y2="549.72" gradientTransform="matrix(1 0 0 -1 0 554)"  gradientUnits="userSpaceOnUse"><stop stop-color="#E09B3D" offset="0"/><stop stop-color="#C74C4D" offset=".3"/><stop stop-color="#C21975" offset=".6"/><stop stop-color="#7024C4" offset="1"/></linearGradient><circle cx="418.31" cy="134.07" r="34.15" fill="url(#b)"/></svg>
