<svg xmlns="http://www.w3.org/2000/svg" xmlns:xlink="http://www.w3.org/1999/xlink" width="1245" height="878" viewBox="0 0 1245 878"><defs><linearGradient id="a" x1="-3.243" y1="4.849" x2="-2.86" y2="4.026" gradientUnits="objectBoundingBox"><stop offset="0" stop-color="#a0cbff"/><stop offset="0.394" stop-color="#a0cbfe"/><stop offset="0.583" stop-color="#8ec2fc"/><stop offset="0.784" stop-color="#83bcfb"/><stop offset="1" stop-color="#7fbafb"/></linearGradient><linearGradient id="b" x1="-3.79" y1="5.501" x2="-3.532" y2="4.631" gradientUnits="objectBoundingBox"><stop offset="0" stop-color="#090058"/><stop offset="1" stop-color="#070033"/></linearGradient><linearGradient id="c" x1="-13.308" y1="10.988" x2="-11.893" y2="8.988" xlink:href="#a"/><linearGradient id="d" x1="-16.914" y1="14.187" x2="-15.148" y2="11.602" xlink:href="#a"/><linearGradient id="e" x1="-10.229" y1="13.597" x2="-10.229" y2="14.597" gradientUnits="objectBoundingBox"><stop offset="0.387" stop-color="#d1d3d4" stop-opacity="0"/><stop offset="1" stop-color="#d1d3d4"/></linearGradient><linearGradient id="f" x1="-9.516" y1="14.078" x2="-9.516" y2="15.078" xlink:href="#e"/><linearGradient id="g" x1="-5.39" y1="6.703" x2="-4.39" y2="6.703" gradientUnits="objectBoundingBox"><stop offset="0" stop-color="#e8e7e5"/><stop offset="1" stop-color="#fff"/></linearGradient><linearGradient id="h" x1="-4.964" y1="30.297" x2="-3.964" y2="30.297" xlink:href="#g"/><linearGradient id="i" x1="0.13" y1="0.12" x2="0.796" y2="0.782" gradientUnits="objectBoundingBox"><stop offset="0" stop-color="#387eb8"/><stop offset="1" stop-color="#366994"/></linearGradient><linearGradient id="j" x1="0.191" y1="0.206" x2="0.907" y2="0.884" gradientUnits="objectBoundingBox"><stop offset="0" stop-color="#ffe052"/><stop offset="1" stop-color="#ffc331"/></linearGradient></defs><g transform="translate(-20 -70)"><g transform="translate(687.138 269.344)"><g transform="translate(-0.138 -0.344)" fill="#fff" stroke="#707070" stroke-width="1"><circle cx="192.5" cy="192.5" r="192.5" stroke="none"/><circle cx="192.5" cy="192.5" r="192" fill="none"/></g><g transform="translate(81.526 43.805)"><g transform="translate(0 0)"><path d="M11.075,29.053H41.23a5.452,5.452,0,0,0,5.346,4.682h68.561a5.435,5.435,0,0,0,5.346-4.682H150.64a9.227,9.227,0,0,0,9.231-9.231H1.854A9.225,9.225,0,0,0,11.075,29.053Z" transform="translate(17.098 177.888)"/><path d="M213.288,30.276c-7.687-6.225-18.513-6.328-25.638-5.54.2-4.968.317-10.049.317-15.333H0c0,50.8,7.687,87.462,56.335,101.139h75.3c19.269-5.408,32.047-14.5,40.521-26.578,18.461-.358,48.157-7.626,49.272-33.12C221.906,39.68,217.265,33.486,213.288,30.276Zm-33.4,39.111c3.537-9.088,5.632-19.31,6.788-30.544,4.988-.818,13.585-1.339,17.93,2.2.8.654,3.281,2.678,3,9.21C207.022,63.458,190.626,67.894,179.892,69.386Z" transform="translate(0 81.791)"/><path d="M13.816,84.539S49.594,81.912,33.2,51.746C20.031,27.529,23.036,13.32,39.883.481c0,0-55.18,14.056-23,57.552C28.689,76.985,13.816,84.539,13.816,84.539Z" transform="translate(62.759 -0.481)"/><path d="M9.85,46.953S38.513,40.911,22.914,17.86C17.251,7.863,25.061,4.3,25.061,4.3S6.61,4.878,14.4,20.732C20.635,33.48,18.784,40.717,9.85,46.953Z" transform="translate(90.84 34.693)"/></g></g><text transform="translate(189.862 331.656)" font-size="47" font-family="SegoeUI-Semibold, Segoe UI" font-weight="600" letter-spacing="0.03em"><tspan x="-73.291" y="0">SKILLS</tspan></text></g><g transform="translate(20 763.717)"><g transform="translate(0 0.283)" fill="#fff" stroke="#707070" stroke-width="1"><circle cx="92" cy="92" r="92" stroke="none"/><circle cx="92" cy="92" r="91.5" fill="none"/></g><g transform="translate(34.553 34.553)"><path d="M0,0H115.177V115.177H0Z" fill="url(#a)"/><path d="M23.859,23.459h96.576v96.887H23.859Z" transform="translate(-14.558 -14.314)" fill="url(#b)"/><g transform="translate(27.375 32.302)"><path d="M72.5,82.84s7.394-.195,13.481-.195c6.151,0,10.536,1.447,13.481,3.99A14.7,14.7,0,0,1,104.171,97.8c0,4.663-1.44,8.479-4.058,11.162-3.4,3.462-7.368,5.511-14.134,5.795-1.869.078-3.6.1-3.6.1v15.158H72.5V82.84Zm9.881,23.613a28.42,28.42,0,0,0,3.338.035c5.3-.064,8.572-3.287,8.572-8.162,0-4.379-2.7-7.975-7.786-8.161-2.028-.074-4.124,0-4.124,0Z" transform="translate(-72.497 -82.645)" fill="url(#c)"/><path d="M162.642,136.316c1.992,1.222,6.691,3.052,9.9,3.052,3.273,0,4.625-1.154,4.625-2.952s-1.067-3.692-5.124-5.06c-7.188-2.448-9.964-5.378-9.892-9.479,0-6.624,5.55-11.59,14.162-11.59a20.738,20.738,0,0,1,9.43,2.405v7.949c-1.567-.865-6.086-2.8-9.074-2.8-2.635,0-4.128,1.08-4.128,2.878,0,1.656,1.353,2.52,5.623,4.032,6.617,2.3,9.393,5.685,9.463,10.868,0,6.551-5.05,11.76-15.086,11.444a23.829,23.829,0,0,1-9.894-2.908v-7.846Z" transform="translate(-127.197 -99.512)" fill="url(#d)"/></g></g></g><g transform="translate(174.159 620.19)"><g transform="translate(-0.159 -0.19)" fill="#fff" stroke="#707070" stroke-width="1"><circle cx="92" cy="92" r="92" stroke="none"/><circle cx="92" cy="92" r="91.5" fill="none"/></g><g transform="translate(35.439 33.667)"><path d="M10,10H115.56V115.56H10Z" transform="translate(-5.192 -5.192)" fill="#2e001e"/><path d="M0,0V115.177H115.177V0ZM4.8,4.922H110.378V110.255H4.8Z" fill="#ff2bc2"/><path d="M107.281,76.08a6.6,6.6,0,0,0-2.789-.481c-6.059,0-10.1,4.664-10.1,12.406,0,8.848,4.135,12.406,9.521,12.406a9.072,9.072,0,0,0,3.318-.529V76.08ZM85.739,88.39c0-11.2,7.213-19.955,19.042-19.955a21.325,21.325,0,0,1,2.5.1v-12.5a.482.482,0,0,1,.481-.481H115.5c.385,0,.481.144.481.385v43.95a34.25,34.25,0,0,0,.24,4.712c0,.337,0,.385-.289.529a28.642,28.642,0,0,1-12.31,2.789c-10.434,0-17.888-6.443-17.888-19.522Zm-16.4-7.79,13.464,26.11c.24.385.1.769-.289.769H74.15a.944.944,0,0,1-1.01-.625q-4.616-9.521-9.425-19.763h-.1c-2.885,6.443-6.059,13.464-9.136,19.811a.923.923,0,0,1-.866.529H45.636c-.481,0-.529-.385-.289-.673L58.523,81.418,45.78,56.221a.426.426,0,0,1,.337-.721h8.271c.481,0,.721.1.866.529,3.029,6.4,6.107,12.694,8.992,19.138h.1c2.789-6.347,5.866-12.742,8.8-19.042.24-.385.385-.625.866-.625h7.742c.385,0,.529.289.289.721L69.342,80.6Z" transform="translate(-23.58 -27.633)" fill="#ff2bc2"/></g></g><g transform="translate(977.738 134.676)"><g transform="translate(0.262 0.324)" fill="#fff" stroke="#707070" stroke-width="1"><circle cx="92" cy="92" r="92" stroke="none"/><circle cx="92" cy="92" r="91.5" fill="none"/></g><g transform="translate(45.185 34.553)"><path d="M93.839,207.092a6.194,6.194,0,0,1,6.194,6.194v26.572a6.194,6.194,0,0,1-12.388,0V213.286a6.194,6.194,0,0,1,6.194-6.194Z" transform="translate(-61.83 -130.875)" fill="#a4c639"/><path d="M69.328,133.645c-.022.235-.042.472-.042.712v40.259a8.112,8.112,0,0,0,8.407,7.818H122.5c4.657,0,8.407-3.488,8.407-7.818V134.357c0-.24-.01-.478-.031-.712Z" transform="translate(-53.139 -96.744)" fill="#a4c639"/><path d="M93.932,141.139c3.626,0,6.566,3.246,6.566,7.249v31.1c0,4-2.94,7.249-6.566,7.249s-6.565-3.245-6.565-7.249v-31.1c0-4,2.94-7.249,6.565-7.249Zm-55.2-33.2c3.626,0,6.565,3.246,6.565,7.249v31.1c0,4-2.94,7.249-6.565,7.249s-6.566-3.246-6.566-7.249v-31.1c0-4,2.939-7.25,6.566-7.25Zm80.782,0c3.626,0,6.566,3.246,6.566,7.249v31.1c0,4-2.94,7.249-6.566,7.249s-6.566-3.246-6.566-7.249v-31.1c0-4,2.94-7.25,6.566-7.25Zm-70-7.288c.183-14.472,11.623-26.339,26.309-27.9h6.6c14.687,1.564,26.126,13.431,26.309,27.9Z" transform="translate(-32.164 -71.559)" fill="#a4c639"/><path d="M74.743,70.009l7.208,11.318m49.666-11.318-7.208,11.318" transform="translate(-56.223 -70.009)" fill="none" stroke="#a4c639" stroke-linecap="round" stroke-linejoin="round" stroke-width="3"/><path d="M106.552,98.01a3.205,3.205,0,0,1-6.409.017V98.01a3.205,3.205,0,0,1,6.409-.017Zm23.921,0a3.205,3.205,0,0,1-6.409.017V98.01a3.205,3.205,0,0,1,6.409-.017Z" transform="translate(-67.877 -84.057)" fill="#fff"/></g></g><g transform="translate(905.088 646.769)"><g transform="translate(-0.088 0.231)" fill="#fff" stroke="#707070" stroke-width="1"><circle cx="92" cy="92" r="92" stroke="none"/><circle cx="92" cy="92" r="91.5" fill="none"/></g><g transform="translate(12.404 13.29)"><path d="M0,0H158.59V158.589H0Z" fill="none"/><path d="M191.118,227.2,151.01,238,110.9,227.2l-9.255-100.27h98.728Z" transform="translate(-71.716 -89.554)" fill="#2062af"/><path d="M269.289,154.511v94.334l.091.025,32.458-8.74,7.492-85.619Z" transform="translate(-189.995 -109.014)" fill="#3c9cd7"/><path d="M176.337,46.952V40.983h8.707v-6.53H169.807V52.911h15.238V46.952Zm24.371-5.968H206.8v-6.53H191.557v6.53c2.039,2.039,3.1,3.015,6.051,5.963-1.724,0-6.051.006-6.051.006v5.958H206.8V46.952l-6.088-5.968Zm21.6,0h6.087v-6.53h-15.24v6.53c2.039,2.039,3.1,3.015,6.051,5.963-1.723,0-6.051.006-6.051.006v5.958H228.4V46.952l-6.088-5.968Z" transform="translate(-119.806 -24.308)"/><path d="M200.385,208.972l-28.707,11.956.952,11.837L200.385,220.9l29.524-12.623,1.224-12.109-30.748,12.806Z" transform="translate(-121.126 -138.404)" fill="#fff"/><path d="M171.677,251.612l.952,11.837,27.755-11.867V239.656Z" transform="translate(-121.126 -169.088)" fill="url(#e)"/><path d="M299.916,196.167l-30.748,12.806V220.9l29.524-12.623Z" transform="translate(-189.91 -138.404)" fill="url(#f)"/><path d="M171.827,280.258l.952,11.837,42.586.136-.953,15.782L200.4,311.958l-13.471-3.4-.816-9.8H173.6l1.633,18.911,25.307,7.483,25.17-7.347,3.266-37.55Z" transform="translate(-121.231 -197.734)" fill="url(#g)"/><path d="M200.385,280.258H171.678l.952,11.837,27.755.089Zm0,31.662-.136.038-13.469-3.4-.816-9.8H173.447l1.632,18.911,25.305,7.483Z" transform="translate(-121.126 -197.734)" opacity="0.05"/><path d="M162.9,196.167h62.04l-1.224,12.109H164.394Z" transform="translate(-114.932 -138.404)" fill="url(#h)"/><path d="M194.19,196.167H162.9l1.5,12.109h29.8Z" transform="translate(-114.932 -138.404)" opacity="0.05"/></g></g><g transform="translate(1050.387 515.645)"><g transform="translate(-0.387 0.355)" fill="#fff" stroke="#707070" stroke-width="1"><ellipse cx="92.5" cy="92" rx="92.5" ry="92" stroke="none"/><ellipse cx="92.5" cy="92" rx="92" ry="91.5" fill="none"/></g><g transform="translate(38.983 31.009)"><g transform="translate(0 0)"><path d="M218.388,211.468l-9.761-109.484h107.2l-9.772,109.492L262.2,223.634Z" transform="translate(-208.627 -101.984)" fill="#e34e26"/><path d="M1000,234.108v103.4l35.462-9.831,8.355-93.57Z" transform="translate(-946.398 -225.159)" fill="#ef662a"/><path d="M503.468,432.378l3.62,40.607h46.542L552.067,490.4l-14.985,4.052-14.957-4.046-1-11.183H507.646l1.927,21.558,27.505,7.64,27.54-7.64,3.692-41.224H519.369l-1.229-13.751h51.387l1.2-13.429Z" transform="translate(-483.498 -410)" fill="#fff"/><g transform="translate(19.97 22.378)"><path d="M537.1,432.378H503.468l3.62,40.607H537.1V459.558h-17.73l-1.229-13.751H537.1Z" transform="translate(-503.468 -432.378)" fill="#ebebeb"/><path d="M594.608,1139.243l-.017.006-14.957-4.046-1-11.183H565.155l1.927,21.558,27.505,7.64.021-.006Z" transform="translate(-560.977 -1077.173)" fill="#ebebeb"/></g></g></g></g><g transform="translate(787.253 70)"><g transform="translate(-0.253)" fill="#fff" stroke="#707070" stroke-width="1"><ellipse cx="92.5" cy="92" rx="92.5" ry="92" stroke="none"/><ellipse cx="92.5" cy="92" rx="92" ry="91.5" fill="none"/></g><g transform="translate(28.351 28.351)"><path d="M0,0H128.466V128.466H0Z" fill="#fff" fill-rule="evenodd"/><path d="M77.247,97.327s-3.068,1.785,2.186,2.389a45.964,45.964,0,0,0,16.634-.7,28.954,28.954,0,0,0,4.425,2.157C84.763,107.908,64.894,100.778,77.247,97.327Zm-1.923-8.8s-3.442,2.548,1.817,3.092a64.908,64.908,0,0,0,21.468-1.029,9.5,9.5,0,0,0,3.3,2.015C82.9,98.171,61.719,93.047,75.324,88.532Z" transform="translate(-23.681 -29.528)" fill="#3174b9" fill-rule="evenodd"/><path d="M100.018,55.132C103.9,59.6,99,63.609,99,63.609s9.841-5.079,5.321-11.442c-4.22-5.931-7.457-8.877,10.065-19.038C114.388,33.128,86.883,40,100.018,55.132Z" transform="translate(-32.174 -11.049)" fill="#ca3132" fill-rule="evenodd"/><path d="M105.9,98.885s2.271,1.873-2.5,3.321c-9.077,2.749-37.785,3.578-45.759.109-2.864-1.248,2.51-2.977,4.2-3.342a11,11,0,0,1,2.77-.312c-3.188-2.245-20.6,4.409-8.845,6.317,32.065,5.2,58.452-2.341,50.136-6.094ZM72.3,74.469s-14.6,3.469-5.17,4.73c3.983.533,11.918.41,19.316-.211,6.044-.507,12.11-1.592,12.11-1.592a25.834,25.834,0,0,0-3.672,1.965c-14.83,3.9-43.473,2.084-35.226-1.9A27.6,27.6,0,0,1,72.3,74.469ZM98.494,89.11c15.074-7.831,8.1-15.358,3.238-14.344a11.457,11.457,0,0,0-1.723.463,2.745,2.745,0,0,1,1.288-.993c9.624-3.382,17.025,9.978-3.1,15.27A1.335,1.335,0,0,0,98.494,89.11Z" transform="translate(-17.257 -24.579)" fill="#3174b9" fill-rule="evenodd"/><path d="M98.962,8.5s8.346,8.352-7.918,21.19C78,40,88.07,45.868,91.04,52.58c-7.615-6.869-13.2-12.918-9.454-18.545,5.5-8.261,20.744-12.267,17.376-25.531Z" transform="translate(-26.812 -2.836)" fill="#ca3132" fill-rule="evenodd"/><path d="M79.128,124.99c14.466.925,36.686-.514,37.213-7.361,0,0-1.012,2.6-11.957,4.654a118.894,118.894,0,0,1-36.615.563S69.62,124.379,79.128,124.99Z" transform="translate(-22.603 -39.233)" fill="#3174b9" fill-rule="evenodd"/><path d="M109.456,143.688h-.44v-.247H110.2v.247h-.44v1.232h-.307Zm2.369.061h-.005l-.437,1.17h-.2l-.435-1.17h-.005v1.17h-.292V143.44h.429l.4,1.046.4-1.046h.425v1.478h-.283v-1.17h0ZM70.541,157.567a6.573,6.573,0,0,1-4.1,1.847,2.617,2.617,0,0,1-2.846-2.882c0-1.92,1.072-3.325,5.361-3.325H70.54v4.359Zm3.766,4.248V148.664c0-3.361-1.917-5.579-6.537-5.579a17.246,17.246,0,0,0-6.981,1.514l.553,2.329a16.217,16.217,0,0,1,5.391-1.071c2.662,0,3.808,1.071,3.808,3.288v1.663H69.21c-6.466,0-9.384,2.509-9.384,6.28,0,3.25,1.923,5.1,5.542,5.1a8.359,8.359,0,0,0,5.688-2.366l.3,1.995Zm12.568,0h-4.7l-5.654-18.4h4.1l3.509,11.3.781,3.4a70.938,70.938,0,0,0,3.655-14.7H92.56A74.61,74.61,0,0,1,86.874,161.815Zm18.019-4.248a6.591,6.591,0,0,1-4.1,1.847,2.616,2.616,0,0,1-2.844-2.882c0-1.92,1.072-3.325,5.359-3.325h1.588Zm3.767,4.248V148.664c0-3.361-1.923-5.579-6.539-5.579a17.246,17.246,0,0,0-6.983,1.514l.553,2.329a16.241,16.241,0,0,1,5.4-1.071c2.658,0,3.8,1.071,3.8,3.288v1.663h-1.33c-6.467,0-9.383,2.509-9.383,6.28,0,3.25,1.919,5.1,5.539,5.1a8.371,8.371,0,0,0,5.691-2.366l.3,1.995ZM55.7,164.941a9.887,9.887,0,0,1-4.706,3.51l-1.859-2.19a7.814,7.814,0,0,0,3.26-3.054c.5-.993.7-2.27.7-5.326v-21h4v20.714C57.1,161.679,56.772,163.331,55.7,164.941Z" transform="translate(-16.387 -45.653)" fill="#ca3132" fill-rule="evenodd"/></g></g><g transform="translate(703.972 659.173)"><g transform="translate(0.028 -0.173)" fill="#fff" stroke="#707070" stroke-width="1"><circle cx="92" cy="92" r="92" stroke="none"/><circle cx="92" cy="92" r="91.5" fill="none"/></g><g transform="translate(37.211 37.211)"><path d="M0,0H110.747V110.747H0Z" fill="#f7df1e"/><path d="M67.311,159.233l8.475-5.129c1.635,2.9,3.122,5.352,6.69,5.352,3.42,0,5.576-1.338,5.576-6.541V117.529H98.46v35.533c0,10.779-6.319,15.686-15.537,15.686-8.325,0-13.158-4.312-15.611-9.516" transform="translate(-38.192 -66.685)"/><path d="M152.381,157.337l8.474-4.906c2.231,3.643,5.13,6.319,10.259,6.319,4.313,0,7.062-2.156,7.062-5.13,0-3.568-2.825-4.832-7.583-6.913l-2.6-1.116c-7.509-3.2-12.49-7.211-12.49-15.685,0-7.806,5.947-13.753,15.24-13.753,6.616,0,11.374,2.3,14.793,8.326l-8.1,5.2c-1.784-3.2-3.717-4.46-6.69-4.46-3.048,0-4.981,1.933-4.981,4.46,0,3.122,1.933,4.386,6.393,6.319l2.6,1.115c8.846,3.792,13.827,7.657,13.827,16.354,0,9.368-7.359,14.5-17.247,14.5-9.664,0-15.909-4.609-18.956-10.631" transform="translate(-86.46 -65.905)"/></g></g><g transform="translate(539.181 539.566)"><g transform="translate(-0.181 0.434)" fill="#fff" stroke="#707070" stroke-width="1"><circle cx="92" cy="92" r="92" stroke="none"/><circle cx="92" cy="92" r="91.5" fill="none"/></g><g transform="translate(28.351 20.685)"><path d="M21.247,20.02c-7.681,11.244-6.725,25.87-.872,37.8l.43.851.291.538c.054.1.116.208.172.31.1.189.2.371.291.557l.56.979.32.538.65,1.035.291.436c.291.465.619.928.942,1.384.007.012.017.025.026.036a2.1,2.1,0,0,1,.145.218c.279.393.582.779.872,1.163l.323.419.792.992.3.369q.541.653,1.105,1.285l.023.023c.015.019.029.029.044.048q.547.617,1.122,1.207l.361.369.9.9.366.355q.6.579,1.229,1.138l.233.2,1.115.96.462.375.931.727.5.385,1.422,1.04c.036.025.068.051.1.076.334.233.673.458,1.013.683l.439.3,1.588.989.439.252,1.192.68c.218.119.441.233.659.346l.852.436.2.1.349.172,1.352.637.286.145q.782.348,1.576.667l.384.154,1.487.561.186.067q.824.291,1.658.553l.4.122a17.387,17.387,0,0,0,1.711.494C89.608,91,100.4,61.368,100.4,61.368,91.338,73.393,75.253,76.562,60.012,73.033c-.577-.145-1.137-.316-1.7-.486l-.425-.145q-.824-.257-1.637-.542l-.225-.083q-.726-.262-1.444-.545l-.407-.163q-.785-.316-1.559-.66l-.311-.14-1.314-.625-.378-.186q-.512-.257-1.018-.528l-.679-.363q-.615-.337-1.218-.7l-.411-.233c-.535-.32-1.064-.654-1.588-.989-.145-.095-.285-.195-.429-.291l-1.13-.765-.363-.262-1.069-.785-.474-.363-.964-.768-.43-.349-1.2-1.018a1.343,1.343,0,0,0-.145-.112c-.427-.382-.848-.775-1.262-1.169l-.355-.349-.907-.9-.355-.363q-.567-.589-1.112-1.2c-.017-.02-.038-.039-.055-.058q-.576-.644-1.128-1.309l-.3-.358-.814-1.022-.3-.378-.938-1.272C23.51,41.8,20.486,25.589,27.233,12.274m17.859-1.727c-5.554,8.142-5.253,19.038-.92,27.649a36.159,36.159,0,0,0,2.457,4.177,19.7,19.7,0,0,0,2.86,3.635c.4.436.819.872,1.246,1.317.108.112.218.218.329.33q.622.618,1.274,1.205c.017.015.033.032.052.047q.733.652,1.5,1.265l.337.268q.762.6,1.556,1.157l.044.033c.233.164.473.32.71.477.113.076.221.156.334.227q.569.372,1.153.72l.163.1,1.018.582c.119.068.241.128.363.192l.727.375c.036.019.073.033.108.051.49.247.983.48,1.487.705.108.048.218.092.329.138q.6.262,1.221.5l.523.195q.557.207,1.12.4l.506.164a12.01,12.01,0,0,0,1.618.477c28.68,4.839,35.3-17.651,35.3-17.651C96.539,48.031,84.981,52.21,72.646,48.95q-.819-.217-1.624-.48c-.164-.051-.326-.1-.489-.145q-.571-.189-1.136-.4l-.513-.195c-.411-.145-.819-.327-1.221-.5-.111-.048-.221-.092-.33-.142q-.759-.332-1.5-.708c-.253-.127-.5-.259-.75-.39l-.433-.227q-.48-.264-.949-.545l-.227-.145q-.581-.347-1.149-.715c-.116-.076-.23-.145-.346-.236l-.744-.5q-.789-.558-1.55-1.154l-.349-.279a35.223,35.223,0,0,1-11.713-17A26.756,26.756,0,0,1,49.66,4.021m15.482-.553a17.25,17.25,0,0,0-1.309,16.424A22.879,22.879,0,0,0,76.87,32.3c.236.09.473.17.727.252l.314.1a9,9,0,0,0,1.021.3C94.768,36.068,99.063,24.676,100.206,23c-3.763,5.518-10.086,6.842-17.845,4.925-.611-.153-1.287-.378-1.89-.59a22.711,22.711,0,0,1-2.229-.944,22.988,22.988,0,0,1-3.908-2.43C67.377,18.6,63.063,8.362,67.593.028" transform="translate(8.198 -0.028)" fill="#0868ac"/><g transform="translate(0 92.853)"><path d="M25.766,72.871l-1.073,3.8,1.073-3.8Zm5.519,8.256L30.1,81.119Zm-.291,5.679-7.084.026Zm1.483-5.67-1.184-.007Zm-.846,5.188,1.236-4.706ZM57.7,64.649,55.4,75.456Zm-5.91,0-1.745,8.074Z" transform="translate(12.6 -58.087)" fill="#131b28"/><path d="M53.341,64.333H48.427a.645.645,0,0,0-.6.486l-3.49,16.149a.645.645,0,0,1-.6.484H40.256c-3.443,0-3.045-2.38-2.326-5.641l.022-.1.417-2.225.18-.916,1.588-7.753a.39.39,0,0,0-.4-.487H34.694a.64.64,0,0,0-.6.486L31.823,75.6C30.572,81.3,30.9,86.743,37.7,86.913l.2,0h10.66a.643.643,0,0,0,.6-.486l4.6-21.615a.386.386,0,0,0-.393-.486Zm19.61,17.176a.4.4,0,0,1,.4.486l-.477,2.334m-.477,2.335.477-2.335Zm-.6.491-9.058.044Z" transform="translate(16.553 -58.258)" fill="#131b28"/><path d="M49.87,73.791c0-.256.286-.695.56-.695l-.614-.01c-.291,2.783.054.705.054.705Zm3.382,8.692h0Zm9.766-5.688a.4.4,0,0,1,.4.486l-.555,2.713m-7.281,2.5h-.02Zm-1.207-.009H54.3Zm-.368,0h0Zm-.359,0h0Zm.672,0h0Z" transform="translate(26.486 -53.544)" fill="#131b28"/><path d="M82.09,87.226l-1.186,0ZM88.4,87.19l-6.288.038Zm.582-.5.4-1.954-.4,1.956Zm-8.573.534h.029Zm-.72,0h0Zm.374,0h0ZM8.145,78.585,8.909,75.2l-.872,3.868-.1.486.212-.971ZM17.285,64.3h-5.4a.654.654,0,0,0-.606.484l-1.024,4.507a.378.378,0,0,0,.387.484h5.441a.645.645,0,0,0,.6-.484l.989-4.517a.383.383,0,0,0-.393-.484ZM16.11,71.814l-1.6,7.325ZM.428,96.088l4.452.035c-1.314,0-3.485-.025-4.453-.036Z" transform="translate(-0.045 -58.281)" fill="#131b28"/><path d="M9.791,70.766l-.765,3.385Zm6.063-.484H10.412a.654.654,0,0,0-.606.484l-1.527,6.77-.212.971L6.613,85.417q-.108.484-.262.955S5.333,89.4,3.626,89.363l-1.694-.032a.654.654,0,0,0-.611.474L.195,94.55a.378.378,0,0,0,.379.489l4.453.036c4.269,0,6.518-2.366,7.962-9.17l3.271-15.121a.384.384,0,0,0-.393-.484Zm77.3,15.613a.391.391,0,0,1-.393-.486L96.85,66.237m1.988,19.171,1.658-8.183Z" transform="translate(-0.178 -57.232)" fill="#131b28"/><path d="M60.419,85.2a2.091,2.091,0,0,1,.044-.727l1.943-9.1-2.047,9.586a.385.385,0,0,0,.393.486h.5C60.975,85.445,60.451,85.336,60.419,85.2Zm5.7.134a2.647,2.647,0,0,1-.768.109h.5a.64.64,0,0,0,.6-.487l.1-.486a1.79,1.79,0,0,1-.436.864Zm1.149-4.469L68,77.255Zm16.151-13.8.225.931a.377.377,0,0,1-.382.484" transform="translate(32.219 -56.783)" fill="#131b28"/><path d="M65.818,85.032l.727-3.606ZM82.475,66.66l.222.954Zm-15.2,11.155.2-.965.781-3.657-.884,4.141-.1.48ZM63.8,66.032l-.17.8-1.942,9.1,2.047-9.586.065-.314Z" transform="translate(32.94 -57.343)" fill="#131b28"/><path d="M109.628,71.6l-.225-.931-.334-1.454c-.442-1.716-1.739-2.709-4.557-2.709L91.543,66.5a.64.64,0,0,0-.6.486l-.2.949-.291,1.435-3.99,18.688a2.082,2.082,0,0,0-.044.727c.033.145.557.243.829.243h4.1a2.606,2.606,0,0,0,.768-.109c.15-.06.369-.582.436-.864l1.556-7.7,1.665-7.8a.645.645,0,0,1,.6-.484l12.9-.006a.377.377,0,0,0,.382-.484Zm16.609-8.423-.993,0h-4.129a1.061,1.061,0,0,0-.776.41l-9.131,13.376c-.154.225-.33.192-.393-.073l-.672-2.947a.654.654,0,0,0-.606-.484h-5.87a.355.355,0,0,0-.361.477l2.617,9.215a2.2,2.2,0,0,1,.015.96l-1.163,4.459a.363.363,0,0,0,.374.481h5.816a.676.676,0,0,0,.619-.48l1.163-4.459a2.966,2.966,0,0,1,.422-.878l14.839-19.677c.164-.218.076-.4-.2-.393l-1.556.01ZM79.6,74.72a.6.6,0,0,1-.582.509H71.574a.319.319,0,0,1-.349-.393l.006-.039.033-.126c.727-1.89,2.159-3.13,4.88-3.13,3.064,0,3.661,1.5,3.453,3.18Zm-2.184-8.59c-9.553,0-11.816,5.8-13.086,11.651-1.271,5.966-1.16,11.545,8.724,11.545h1.567l1.207,0,6.29-.038a.64.64,0,0,0,.592-.487l.955-4.67a.389.389,0,0,0-.4-.486H74.381c-3.533,0-4.584-.939-4.2-3.7H84.389a.57.57,0,0,0,.526-.366.6.6,0,0,0,.035-.124c2.108-7.953,1.5-13.314-7.532-13.314ZM32.264,74.688l-.134.475s-1.073,3.8-1.073,3.8l-1.073,3.8a.7.7,0,0,1-.631.477H23.674c-4.307,0-5.355-3.369-4.307-8.337,1.047-5.082,3.1-8.241,7.343-8.561,5.793-.436,6.95,3.638,5.554,8.34Zm3.894,8.266s2.675-6.5,3.286-10.255c.829-5.026-1.687-12.315-11.406-12.315-9.665,0-13.861,6.959-15.461,14.54-1.6,7.619.5,14.3,10.105,14.249l14.665-.054a.683.683,0,0,0,.621-.483L39.2,83.928a.363.363,0,0,0-.371-.483l-2.366-.015a.3.3,0,0,1-.337-.349.541.541,0,0,1,.029-.11Z" transform="translate(6.236 -60.384)" fill="#131b28"/><path d="M59.06,72.342a.326.326,0,1,1-.326-.326A.325.325,0,0,1,59.06,72.342Z" transform="translate(31.175 -54.12)" fill="#131b28"/></g></g></g><g transform="translate(1080.511 315.415)"><g transform="translate(0.489 -0.415)" fill="#fff" stroke="#707070" stroke-width="1"><ellipse cx="92" cy="92.5" rx="92" ry="92.5" stroke="none"/><ellipse cx="92" cy="92.5" rx="91.5" ry="92" fill="none"/></g><g transform="translate(37.211 37.211)"><path d="M0,0H110.747V110.747H0Z" fill="#fff" fill-rule="evenodd"/><path d="M148.364,53.706a1.041,1.041,0,0,0-1.114,1.013,1.114,1.114,0,1,0,2.228,0A1.041,1.041,0,0,0,148.364,53.706Zm0,.1a.908.908,0,0,1,.911.912.936.936,0,0,1-.911,1.013.957.957,0,0,1-1.013-1.013A.936.936,0,0,1,148.364,53.807Zm.506,1.621-.3-.608c.2-.1.3-.2.3-.3a.463.463,0,0,0-.506-.405h-.507v1.317h.2v-.506h.3l.3.506h.2Zm-.81-.71v-.405h.3a.445.445,0,0,1,.3.1.269.269,0,0,1-.3.3h-.3Z" transform="translate(-62.648 -22.85)" fill="#0c0e0f" fill-rule="evenodd"/><path d="M69.135,138.121H85.851v-.3H69.135Z" transform="translate(-29.414 -58.635)" fill="#a1c677" fill-rule="evenodd"/><path d="M69.135,137.591H85.851v-.3H69.135Z" transform="translate(-29.414 -58.41)" fill="#a4c67f" fill-rule="evenodd"/><path d="M69.135,136.987H85.851v-.405H69.135Z" transform="translate(-29.414 -58.11)" fill="#a9c983" fill-rule="evenodd"/><path d="M69.135,136.357H85.851v-.3H69.135Z" transform="translate(-29.414 -57.885)" fill="#aecc8b" fill-rule="evenodd"/><path d="M69.135,135.827H85.851v-.3H69.135Z" transform="translate(-29.414 -57.659)" fill="#b1cf92" fill-rule="evenodd"/><path d="M69.135,135.3H85.851v-.3H69.135Z" transform="translate(-29.414 -57.434)" fill="#b6d296" fill-rule="evenodd"/><path d="M69.135,134.694H85.851v-.405H69.135Z" transform="translate(-29.414 -57.134)" fill="#b9d29b" fill-rule="evenodd"/><path d="M69.135,134.064H85.851v-.3H69.135Z" transform="translate(-29.414 -56.909)" fill="#bdd4a0" fill-rule="evenodd"/><path d="M69.135,133.535H85.851v-.3H69.135Z" transform="translate(-29.414 -56.684)" fill="#c4d9a8" fill-rule="evenodd"/><path d="M69.135,133.006H85.851v-.3H69.135Z" transform="translate(-29.414 -56.459)" fill="#c5daad" fill-rule="evenodd"/><path d="M69.135,132.4H85.851V132H69.135Z" transform="translate(-29.414 -56.159)" fill="#c8dab2" fill-rule="evenodd"/><path d="M69.135,131.772H85.851v-.3H69.135Z" transform="translate(-29.414 -55.934)" fill="#cedeb9" fill-rule="evenodd"/><path d="M69.135,131.243H85.851v-.3H69.135Z" transform="translate(-29.414 -55.709)" fill="#d2e0be" fill-rule="evenodd"/><path d="M69.135,130.714H85.851v-.3H69.135Z" transform="translate(-29.414 -55.484)" fill="#d6e2c4" fill-rule="evenodd"/><path d="M69.135,130.185H85.851v-.3H69.135Z" transform="translate(-29.414 -55.259)" fill="#dae7cb" fill-rule="evenodd"/><path d="M69.135,129.581H85.851v-.405H69.135Z" transform="translate(-29.414 -54.959)" fill="#dce8d0" fill-rule="evenodd"/><path d="M69.135,128.951H85.851v-.3H69.135Z" transform="translate(-29.414 -54.733)" fill="#e2ebd6" fill-rule="evenodd"/><path d="M69.135,128.421H85.851v-.3H69.135Z" transform="translate(-29.414 -54.508)" fill="#e5ebdc" fill-rule="evenodd"/><path d="M69.135,127.892H85.851v-.3H69.135Z" transform="translate(-29.414 -54.283)" fill="#eceee0" fill-rule="evenodd"/><path d="M69.135,127.288H85.851v-.405H69.135Z" transform="translate(-29.414 -53.983)" fill="#f0f1e8" fill-rule="evenodd"/><path d="M69.135,126.658H85.851v-.3H69.135Z" transform="translate(-29.414 -53.758)" fill="#f2f2ee" fill-rule="evenodd"/><path d="M69.135,126.129H85.851v-.3H69.135Z" transform="translate(-29.414 -53.533)" fill="#f7f8f6" fill-rule="evenodd"/><path d="M69.135,125.6H85.851v-.3H69.135Z" transform="translate(-29.414 -53.308)" fill="#fff" fill-rule="evenodd"/><path d="M98.406,126.311h.3v-15.3h-.3Zm.3,0h.3v-15.3h-.3Z" transform="translate(-41.867 -47.232)" fill="#f3d23d" fill-rule="evenodd"/><path d="M99.465,126.311h.3v-15.3h-.3Z" transform="translate(-42.318 -47.232)" fill="#f3d43f" fill-rule="evenodd"/><path d="M99.992,126.311h.405v-15.3h-.405Z" transform="translate(-42.542 -47.232)" fill="#f3d244" fill-rule="evenodd"/><path d="M100.7,126.311h.3v-15.3h-.3Z" transform="translate(-42.842 -47.232)" fill="#f3d44a" fill-rule="evenodd"/><path d="M101.227,126.311h.3v-15.3h-.3Z" transform="translate(-43.068 -47.232)" fill="#f3d44e" fill-rule="evenodd"/><path d="M101.756,126.311h.3v-15.3h-.3Z" transform="translate(-43.293 -47.232)" fill="#f3d552" fill-rule="evenodd"/><path d="M102.285,126.311h.405v-15.3h-.405Z" transform="translate(-43.518 -47.232)" fill="#f2d359" fill-rule="evenodd"/><path d="M102.99,126.311h.3v-15.3h-.3Z" transform="translate(-43.818 -47.232)" fill="#f1d65c" fill-rule="evenodd"/><path d="M103.52,126.311h.3v-15.3h-.3Z" transform="translate(-44.043 -47.232)" fill="#f4d760" fill-rule="evenodd"/><path d="M104.049,126.311h.3v-15.3h-.3Z" transform="translate(-44.268 -47.232)" fill="#f2da67" fill-rule="evenodd"/><path d="M104.578,126.311h.3v-15.3h-.3Z" transform="translate(-44.493 -47.232)" fill="#f2da6b" fill-rule="evenodd"/><path d="M105.107,126.311h.405v-15.3h-.405Z" transform="translate(-44.718 -47.232)" fill="#f5db6f" fill-rule="evenodd"/><path d="M105.812,126.311h.3v-15.3h-.3Z" transform="translate(-45.018 -47.232)" fill="#f6dd72" fill-rule="evenodd"/><path d="M106.34,126.311h.3v-15.3h-.3Z" transform="translate(-45.243 -47.232)" fill="#f5dc77" fill-rule="evenodd"/><path d="M106.869,126.311h.3v-15.3h-.3Z" transform="translate(-45.468 -47.232)" fill="#f5dc7b" fill-rule="evenodd"/><path d="M107.4,126.311h.406v-15.3H107.4Z" transform="translate(-45.693 -47.232)" fill="#f5dc7f" fill-rule="evenodd"/><path d="M108.1,126.311h.3v-15.3h-.3Z" transform="translate(-45.994 -47.232)" fill="#f5dc80" fill-rule="evenodd"/><path d="M108.633,126.311h.3v-15.3h-.3Z" transform="translate(-46.219 -47.232)" fill="#f5dd84" fill-rule="evenodd"/><path d="M109.162,126.311h.3v-15.3h-.3Z" transform="translate(-46.444 -47.232)" fill="#f5df88" fill-rule="evenodd"/><path d="M109.691,126.311h.405v-15.3h-.405Z" transform="translate(-46.669 -47.232)" fill="#f5df8b" fill-rule="evenodd"/><path d="M110.4,126.311h.3v-15.3h-.3Z" transform="translate(-46.969 -47.232)" fill="#f5df8d" fill-rule="evenodd"/><path d="M110.926,126.311h.3v-15.3h-.3Z" transform="translate(-47.194 -47.232)" fill="#f4e08e" fill-rule="evenodd"/><path d="M111.455,126.311h.3v-15.3h-.3Z" transform="translate(-47.419 -47.232)" fill="#f6e193" fill-rule="evenodd"/><path d="M111.984,126.311h.3v-15.3h-.3Z" transform="translate(-47.644 -47.232)" fill="#f4e297" fill-rule="evenodd"/><path d="M112.512,126.311h.405v-15.3h-.405Z" transform="translate(-47.869 -47.232)" fill="#f7e69b" fill-rule="evenodd"/><path d="M113.217,126.311h.3v-15.3h-.3Z" transform="translate(-48.169 -47.232)" fill="#f7e69d" fill-rule="evenodd"/><path d="M113.746,126.311h.3v-15.3h-.3Z" transform="translate(-48.394 -47.232)" fill="#f7e6a0" fill-rule="evenodd"/><path d="M114.275,126.311h.3v-15.3h-.3Z" transform="translate(-48.619 -47.232)" fill="#f7e6a4" fill-rule="evenodd"/><path d="M114.805,126.311h.405v-15.3h-.405Z" transform="translate(-48.845 -47.232)" fill="#f7e7a8" fill-rule="evenodd"/><path d="M115.51,126.311h.3v-15.3h-.3Z" transform="translate(-49.144 -47.232)" fill="#f7e7ab" fill-rule="evenodd"/><path d="M116.039,126.311h.3v-15.3h-.3Z" transform="translate(-49.37 -47.232)" fill="#f7e7ad" fill-rule="evenodd"/><path d="M116.568,126.311h.3v-15.3h-.3Z" transform="translate(-49.595 -47.232)" fill="#fae9b1" fill-rule="evenodd"/><path d="M117.1,126.311h.3v-15.3h-.3Z" transform="translate(-49.82 -47.232)" fill="#f7e7b4" fill-rule="evenodd"/><path d="M117.627,126.311h.405v-15.3h-.405Z" transform="translate(-50.045 -47.232)" fill="#f7e8b6" fill-rule="evenodd"/><path d="M118.332,126.311h.3v-15.3h-.3Z" transform="translate(-50.345 -47.232)" fill="#f7e8b8" fill-rule="evenodd"/><path d="M118.859,126.311h.3v-15.3h-.3Z" transform="translate(-50.569 -47.232)" fill="#f7e8bc" fill-rule="evenodd"/><path d="M119.389,126.311h.3v-15.3h-.3Z" transform="translate(-50.795 -47.232)" fill="#f7e8bf" fill-rule="evenodd"/><path d="M119.918,126.311h.405v-15.3h-.405Z" transform="translate(-51.02 -47.232)" fill="#f7eac4" fill-rule="evenodd"/><path d="M120.623,126.311h.3v-15.3h-.3Z" transform="translate(-51.32 -47.232)" fill="#f7ebc5" fill-rule="evenodd"/><path d="M121.152,126.311h.3v-15.3h-.3Z" transform="translate(-51.545 -47.232)" fill="#f7ebc7" fill-rule="evenodd"/><path d="M121.682,126.311h.3v-15.3h-.3Z" transform="translate(-51.77 -47.232)" fill="#f8edcc" fill-rule="evenodd"/><path d="M122.211,126.311h.3v-15.3h-.3Z" transform="translate(-51.995 -47.232)" fill="#fbefd0" fill-rule="evenodd"/><path d="M122.74,126.311h.405v-15.3h-.405Z" transform="translate(-52.221 -47.232)" fill="#f8efd2" fill-rule="evenodd"/><path d="M123.445,126.311h.3v-15.3h-.3Z" transform="translate(-52.52 -47.232)" fill="#f8f0d6" fill-rule="evenodd"/><path d="M123.975,126.311h.3v-15.3h-.3Z" transform="translate(-52.746 -47.232)" fill="#f8f0d9" fill-rule="evenodd"/><path d="M124.5,126.311h.3v-15.3h-.3Z" transform="translate(-52.97 -47.232)" fill="#f8f0db" fill-rule="evenodd"/><path d="M125.031,126.311h.405v-15.3h-.405Z" transform="translate(-53.195 -47.232)" fill="#f8f0df" fill-rule="evenodd"/><path d="M125.736,126.311h.3v-15.3h-.3Z" transform="translate(-53.495 -47.232)" fill="#f9f3e4" fill-rule="evenodd"/><path d="M126.266,126.311h.3v-15.3h-.3Z" transform="translate(-53.721 -47.232)" fill="#f9f3e6" fill-rule="evenodd"/><path d="M126.795,126.311h.3v-15.3h-.3Z" transform="translate(-53.946 -47.232)" fill="#f9f3e9" fill-rule="evenodd"/><path d="M127.324,126.311h.405v-15.3h-.405v15.3Z" transform="translate(-54.171 -47.232)" fill="#f9f6eb" fill-rule="evenodd"/><path d="M128.029,126.311h.3v-15.3h-.3Z" transform="translate(-54.471 -47.232)" fill="#f9f6ee" fill-rule="evenodd"/><path d="M128.559,126.311h.3v-15.3h-.3Z" transform="translate(-54.696 -47.232)" fill="#f9f6f0" fill-rule="evenodd"/><path d="M129.088,126.311h.3v-15.3h-.3Z" transform="translate(-54.921 -47.232)" fill="#faf9f4" fill-rule="evenodd"/><path d="M129.617,126.311h.3v-15.3h-.3Z" transform="translate(-55.146 -47.232)" fill="#fffffb" fill-rule="evenodd"/><path d="M130.145,126.311h.406v-15.3h-.406Z" transform="translate(-55.371 -47.232)" fill="#fff" fill-rule="evenodd"/><path d="M45.331,90.259H59.919v-.405H45.634Z" transform="translate(-19.286 -38.229)" fill="#769fd2" fill-rule="evenodd"/><path d="M44.8,90.863H59.694v-.3H45.106Z" transform="translate(-19.061 -38.529)" fill="#76a1d3" fill-rule="evenodd"/><path d="M44.272,91.392h15.2v-.3H44.576Z" transform="translate(-18.836 -38.754)" fill="#7aa2d3" fill-rule="evenodd"/><path d="M43.744,91.921h15.5v-.3h-15.2Z" transform="translate(-18.611 -38.979)" fill="#7ca3d3" fill-rule="evenodd"/><path d="M43.214,92.552h15.8v-.406h-15.5Z" transform="translate(-18.386 -39.204)" fill="#80a4d1" fill-rule="evenodd"/><path d="M42.685,93.155H58.793v-.3h-15.8Z" transform="translate(-18.161 -39.504)" fill="#80a4d1" fill-rule="evenodd"/><path d="M42.156,93.685H58.568v-.3H42.46Z" transform="translate(-17.936 -39.729)" fill="#80a3d0" fill-rule="evenodd"/><path d="M41.4,94.213H58.119v-.3H41.706Zm-.3.406h17.02v-.406H41.4Z" transform="translate(-17.486 -39.955)" fill="#84a6d1" fill-rule="evenodd"/><path d="M40.57,95.448H57.894v-.3H40.874Z" transform="translate(-17.261 -40.48)" fill="#88a9d2" fill-rule="evenodd"/><path d="M40.041,95.976H57.669v-.3H40.345Z" transform="translate(-17.036 -40.705)" fill="#8aabd5" fill-rule="evenodd"/><path d="M39.511,96.5H57.443v-.3H39.816Z" transform="translate(-16.81 -40.929)" fill="#8cacd5" fill-rule="evenodd"/><path d="M39.159,97.035H57.293v-.3H39.361Z" transform="translate(-16.66 -41.154)" fill="#8daed9" fill-rule="evenodd"/><path d="M38.63,97.665H57.068V97.26H38.934Z" transform="translate(-16.435 -41.38)" fill="#8fafd9" fill-rule="evenodd"/><path d="M38.1,98.269H56.843v-.3H38.4Z" transform="translate(-16.21 -41.68)" fill="#91afd7" fill-rule="evenodd"/><path d="M37.572,98.8H56.618v-.3H37.876l-.3.3Z" transform="translate(-15.985 -41.905)" fill="#93b0d9" fill-rule="evenodd"/><path d="M37.043,99.328h19.35v-.3H37.347Z" transform="translate(-15.76 -42.13)" fill="#96b4d9" fill-rule="evenodd"/><path d="M36.514,99.958H56.168v-.405H36.818Z" transform="translate(-15.535 -42.355)" fill="#9ab5da" fill-rule="evenodd"/><path d="M35.985,100.562H55.943v-.3H36.289Z" transform="translate(-15.31 -42.655)" fill="#9bb6da" fill-rule="evenodd"/><path d="M35.456,101.091H55.718v-.3H35.76Z" transform="translate(-15.085 -42.88)" fill="#9db6da" fill-rule="evenodd"/><path d="M34.927,101.619H55.493v-.3H35.231Z" transform="translate(-14.86 -43.106)" fill="#9fb7da" fill-rule="evenodd"/><path d="M34.574,102.249H55.343v-.405H34.777l-.2.3v.1Z" transform="translate(-14.71 -43.33)" fill="#a2bbdd" fill-rule="evenodd"/><path d="M34.574,102.853H55.343v-.3H34.574Z" transform="translate(-14.71 -43.63)" fill="#a3badc" fill-rule="evenodd"/><path d="M34.574,103.382H55.343v-.3H34.574Z" transform="translate(-14.71 -43.855)" fill="#a4bdde" fill-rule="evenodd"/><path d="M34.574,103.912H55.343v-.3H34.574Z" transform="translate(-14.71 -44.08)" fill="#a8bddd" fill-rule="evenodd"/><path d="M34.574,104.441H55.343v-.3H34.574Z" transform="translate(-14.71 -44.306)" fill="#a8bfde" fill-rule="evenodd"/><path d="M34.574,105.071H55.343v-.405H34.574Z" transform="translate(-14.71 -44.531)" fill="#aac0de" fill-rule="evenodd"/><path d="M34.574,105.675H55.343v-.3H34.574Zm0,.3H55.343v-.3H34.574Z" transform="translate(-14.71 -44.831)" fill="#aec3e2" fill-rule="evenodd"/><path d="M34.574,106.733H55.343v-.3H34.574Z" transform="translate(-14.71 -45.281)" fill="#b1c5e3" fill-rule="evenodd"/><path d="M34.574,107.363H55.343v-.406H34.574Z" transform="translate(-14.71 -45.506)" fill="#b3c6e4" fill-rule="evenodd"/><path d="M34.574,107.968H55.343v-.3H34.574Z" transform="translate(-14.71 -45.806)" fill="#b5c9e5" fill-rule="evenodd"/><path d="M34.574,108.5H55.343v-.3H34.574Z" transform="translate(-14.71 -46.031)" fill="#b7c9e5" fill-rule="evenodd"/><path d="M34.574,109.025H55.343v-.3H34.574Z" transform="translate(-14.71 -46.256)" fill="#b9c9e4" fill-rule="evenodd"/><path d="M34.574,109.655H55.343v-.405H34.574Z" transform="translate(-14.71 -46.481)" fill="#bbcbe3" fill-rule="evenodd"/><path d="M34.574,110.184H55.343v-.405H34.574Z" transform="translate(-14.71 -46.706)" fill="#bdcce3" fill-rule="evenodd"/><path d="M34.574,110.789H55.343v-.3H34.574Z" transform="translate(-14.71 -47.006)" fill="#c0cee5" fill-rule="evenodd"/><path d="M34.574,111.318H55.343v-.3H34.574Zm0,.3H55.343v-.3H34.574Z" transform="translate(-14.71 -47.232)" fill="#c4d0e5" fill-rule="evenodd"/><path d="M34.574,112.477H55.343v-.405H34.574Z" transform="translate(-14.71 -47.682)" fill="#c6d3e6" fill-rule="evenodd"/><path d="M34.574,113.082H55.343v-.3H34.574Zm0,.3H55.343v-.3H34.574Z" transform="translate(-14.71 -47.982)" fill="#c9d5e8" fill-rule="evenodd"/><path d="M34.574,114.138H55.343v-.3H34.574Z" transform="translate(-14.71 -48.431)" fill="#ccd8e9" fill-rule="evenodd"/><path d="M34.574,114.768H55.343v-.405H34.574Z" transform="translate(-14.71 -48.656)" fill="#cdd7eb" fill-rule="evenodd"/><path d="M34.574,115.373H55.343v-.3H34.574Z" transform="translate(-14.71 -48.956)" fill="#d0dced" fill-rule="evenodd"/><path d="M34.574,115.9H55.343v-.3H34.574Z" transform="translate(-14.71 -49.182)" fill="#d2dded" fill-rule="evenodd"/><path d="M34.574,116.431H55.343v-.3H34.574Z" transform="translate(-14.71 -49.407)" fill="#d4deee" fill-rule="evenodd"/><path d="M34.574,116.961H55.343v-.3H34.574Z" transform="translate(-14.71 -49.632)" fill="#d6dff1" fill-rule="evenodd"/><path d="M34.574,117.591H55.343v-.405H34.574Z" transform="translate(-14.71 -49.858)" fill="#d7e0ef" fill-rule="evenodd"/><path d="M34.574,118.195H55.343v-.3H34.574Z" transform="translate(-14.71 -50.157)" fill="#dbe2ed" fill-rule="evenodd"/><path d="M34.574,118.724H55.343v-.3H34.574Z" transform="translate(-14.71 -50.383)" fill="#dee3ed" fill-rule="evenodd"/><path d="M34.574,119.252H55.343v-.3H34.574Z" transform="translate(-14.71 -50.608)" fill="#e0e6ef" fill-rule="evenodd"/><path d="M34.574,119.883H55.343v-.406H34.574Zm0,.3H55.343v-.3H34.574Z" transform="translate(-14.71 -50.832)" fill="#e2e7ef" fill-rule="evenodd"/><path d="M34.574,121.015H55.343v-.3H34.574Z" transform="translate(-14.71 -51.357)" fill="#e5e8ef" fill-rule="evenodd"/><path d="M34.574,121.545H55.343v-.3H34.574Z" transform="translate(-14.71 -51.582)" fill="#e7ebf0" fill-rule="evenodd"/><path d="M34.574,122.175H55.343v-.405H34.574Z" transform="translate(-14.71 -51.808)" fill="#eaecf1" fill-rule="evenodd"/><path d="M34.574,122.779H55.343v-.3H34.574Zm0,.3H55.343v-.3H34.574Z" transform="translate(-14.71 -52.108)" fill="#eceff2" fill-rule="evenodd"/><path d="M34.574,123.837H55.343v-.3H34.574Zm0,.3H55.343v-.3H34.574Z" transform="translate(-14.71 -52.558)" fill="#f2f3f4" fill-rule="evenodd"/><path d="M34.574,125H55.343v-.405H34.574Z" transform="translate(-14.71 -53.008)" fill="#f4f4f7" fill-rule="evenodd"/><path d="M34.574,125.6H55.343v-.3H34.574Z" transform="translate(-14.71 -53.308)" fill="#f7f8f8" fill-rule="evenodd"/><path d="M34.574,126.129H55.343v-.3H34.574Z" transform="translate(-14.71 -53.533)" fill="#fbfdff" fill-rule="evenodd"/><path d="M34.574,126.658H55.343v-.3H34.574Z" transform="translate(-14.71 -53.758)" fill="#fff" fill-rule="evenodd"/><path d="M132.086,90.259h15.3v-.405h-15.3Z" transform="translate(-56.197 -38.229)" fill="#da884e" fill-rule="evenodd"/><path d="M132.086,90.863h15.3v-.3h-15.3Z" transform="translate(-56.197 -38.529)" fill="#db8a51" fill-rule="evenodd"/><path d="M132.086,91.392h15.3v-.3h-15.3Z" transform="translate(-56.197 -38.754)" fill="#da8f56" fill-rule="evenodd"/><path d="M132.086,91.921h15.3v-.3h-15.3Z" transform="translate(-56.197 -38.979)" fill="#db925d" fill-rule="evenodd"/><path d="M132.086,92.552h15.3v-.406h-15.3Z" transform="translate(-56.197 -39.204)" fill="#db9461" fill-rule="evenodd"/><path d="M132.086,93.155h15.3v-.3h-15.3Z" transform="translate(-56.197 -39.504)" fill="#dc9865" fill-rule="evenodd"/><path d="M132.086,93.685h15.3v-.3h-15.3Z" transform="translate(-56.197 -39.729)" fill="#df9b68" fill-rule="evenodd"/><path d="M132.086,94.213h15.3v-.3h-15.3Z" transform="translate(-56.197 -39.955)" fill="#e39d6d" fill-rule="evenodd"/><path d="M132.086,94.844h15.3v-.406h-15.3Z" transform="translate(-56.197 -40.179)" fill="#e09f73" fill-rule="evenodd"/><path d="M132.086,95.448h15.3v-.3h-15.3Z" transform="translate(-56.197 -40.48)" fill="#e2a475" fill-rule="evenodd"/><path d="M132.086,95.976h15.3v-.3h-15.3Z" transform="translate(-56.197 -40.705)" fill="#e0a779" fill-rule="evenodd"/><path d="M132.086,96.5h15.3v-.3h-15.3Z" transform="translate(-56.197 -40.929)" fill="#e1a97b" fill-rule="evenodd"/><path d="M132.086,97.035h15.3v-.3h-15.3Z" transform="translate(-56.197 -41.154)" fill="#e1ab80" fill-rule="evenodd"/><path d="M132.086,97.665h15.3V97.26h-15.3Z" transform="translate(-56.197 -41.38)" fill="#e3af86" fill-rule="evenodd"/><path d="M132.086,98.269h15.3v-.3h-15.3Z" transform="translate(-56.197 -41.68)" fill="#e3b188" fill-rule="evenodd"/><path d="M132.086,98.8h15.3v-.3h-15.3Z" transform="translate(-56.197 -41.905)" fill="#e6b48d" fill-rule="evenodd"/><path d="M132.086,99.328h15.3v-.3h-15.3Z" transform="translate(-56.197 -42.13)" fill="#e7b892" fill-rule="evenodd"/><path d="M132.086,99.958h15.3v-.405h-15.3Z" transform="translate(-56.197 -42.355)" fill="#e9be96" fill-rule="evenodd"/><path d="M132.086,100.562h15.3v-.3h-15.3Z" transform="translate(-56.197 -42.655)" fill="#e7c09b" fill-rule="evenodd"/><path d="M132.086,101.091h15.3v-.3h-15.3Z" transform="translate(-56.197 -42.88)" fill="#e8c29e" fill-rule="evenodd"/><path d="M132.086,101.619h15.3v-.3h-15.3Z" transform="translate(-56.197 -43.106)" fill="#e8c4a2" fill-rule="evenodd"/><path d="M132.086,102.249h15.3v-.405h-15.3Z" transform="translate(-56.197 -43.33)" fill="#eac8a8" fill-rule="evenodd"/><path d="M132.086,102.853h15.3v-.3h-15.3Z" transform="translate(-56.197 -43.63)" fill="#ebccad" fill-rule="evenodd"/><path d="M132.086,103.382h15.3v-.3h-15.3Z" transform="translate(-56.197 -43.855)" fill="#ebceb0" fill-rule="evenodd"/><path d="M132.086,103.912h15.3v-.3h-15.3Z" transform="translate(-56.197 -44.08)" fill="#ecd0b4" fill-rule="evenodd"/><path d="M132.086,104.441h15.3v-.3h-15.3Z" transform="translate(-56.197 -44.306)" fill="#efd3b7" fill-rule="evenodd"/><path d="M132.086,105.071h15.3v-.405h-15.3Z" transform="translate(-56.197 -44.531)" fill="#f3d7bd" fill-rule="evenodd"/><path d="M132.086,105.675h15.3v-.3h-15.3Z" transform="translate(-56.197 -44.831)" fill="#f4d9c1" fill-rule="evenodd"/><path d="M132.086,106.2h15.3v-.3h-15.3Z" transform="translate(-56.197 -45.056)" fill="#f2dcc6" fill-rule="evenodd"/><path d="M132.086,106.733h15.3v-.3h-15.3Z" transform="translate(-56.197 -45.281)" fill="#f0dfcb" fill-rule="evenodd"/><path d="M132.086,107.363h15.3v-.406h-15.3Z" transform="translate(-56.197 -45.506)" fill="#f1e1ce" fill-rule="evenodd"/><path d="M132.086,107.968h15.3v-.3h-15.3Z" transform="translate(-56.197 -45.806)" fill="#f2e5d6" fill-rule="evenodd"/><path d="M132.086,108.5h15.3v-.3h-15.3Z" transform="translate(-56.197 -46.031)" fill="#f3e7da" fill-rule="evenodd"/><path d="M132.086,109.025h15.3v-.3h-15.3Z" transform="translate(-56.197 -46.256)" fill="#f3e9df" fill-rule="evenodd"/><path d="M132.086,109.655h15.3v-.405h-15.3Z" transform="translate(-56.197 -46.481)" fill="#f4eee3" fill-rule="evenodd"/><path d="M132.086,110.184h15.3v-.405h-15.3Z" transform="translate(-56.197 -46.706)" fill="#f4eee7" fill-rule="evenodd"/><path d="M132.086,110.789h15.3v-.3h-15.3Z" transform="translate(-56.197 -47.006)" fill="#f5f0ea" fill-rule="evenodd"/><path d="M132.086,111.318h15.3v-.3h-15.3Z" transform="translate(-56.197 -47.232)" fill="#f9f6f0" fill-rule="evenodd"/><path d="M132.086,111.847h15.3v-.3h-15.3Z" transform="translate(-56.197 -47.457)" fill="#f9f6f4" fill-rule="evenodd"/><path d="M132.086,112.477h15.3v-.405h-15.3Z" transform="translate(-56.197 -47.682)" fill="#fff" fill-rule="evenodd"/><path d="M77.095,102.171c-2.026,4.56-4.762,6.585-9.119,6.585a9.642,9.642,0,0,1-8.51-5.065c-1.014-2.128-1.419-3.951-1.419-7.8H82.463c0-4.458-.506-7.193-1.824-10.03a13.439,13.439,0,0,0-12.765-8.105c-9.22,0-15.6,7.193-15.6,17.831,0,10.435,6.18,17.425,15.4,17.425,6.788,0,12.056-3.647,14.184-9.827l-4.761-1.013ZM58.353,91.939c.3-3.242.911-4.864,2.33-6.687a9.417,9.417,0,0,1,7.294-3.546c5.37,0,8.611,3.85,8.815,10.233Zm48.324,16.615a22.588,22.588,0,0,1-4.053.405c-3.545,0-5.37-1.722-5.37-5.269V69.752l-5.166.2V102.88c0,6.788,3.242,10.232,9.625,10.232a34.4,34.4,0,0,0,4.965-.405v-4.153ZM2.834,107.54A5.268,5.268,0,1,1,8.1,112.809a5.233,5.233,0,0,1-5.268-5.269Zm41.537,5.471V92.244c0-4.762-.406-7.295-1.114-8.916a10.693,10.693,0,0,0-9.827-6.079c-4.559,0-7.294,1.722-10.739,7.092v-6.18H17.93v34.85H23.1V93.255c0-6.585,3.951-11.549,9.421-11.549,4.457,0,6.889,2.938,6.889,8.409v22.9h4.965Z" transform="translate(-1.206 -29.676)" fill="#0c0e0f" fill-rule="evenodd"/><path d="M68.074,68.3h37.788v3.951H68.074Zm-23.909,31.3H68.277v3.85H44.165ZM17.115,61.921V47.839H14.481L10.328,59.084,6.073,47.839H3.54V61.921H4.959V49.561l4.66,12.36h1.216l4.559-12.36v12.36Zm3.445,0h1.621V51.487H20.56Zm0-12.36h1.722V47.839H20.56ZM31.6,58.274c-.3,1.722-1.216,2.634-2.533,2.634-1.722,0-2.735-1.621-2.735-4.255,0-2.533,1.114-4.153,2.837-4.153,1.317,0,2.229.912,2.431,2.634l1.52-.3c-.405-2.33-1.824-3.647-3.951-3.647-2.735,0-4.559,2.229-4.559,5.471,0,3.343,1.722,5.471,4.457,5.471a3.74,3.74,0,0,0,2.837-1.115,4.559,4.559,0,0,0,1.216-2.533l-1.52-.2Zm5.37,3.647V56.349c.1-2.128,1.621-3.748,3.546-3.546V51.183H39.91a3.123,3.123,0,0,0-2.026.912,20.245,20.245,0,0,0-1.013,1.824V51.487H35.452V61.922h1.52Zm9.016-10.739a4.333,4.333,0,0,0-3.647,1.824,5.8,5.8,0,0,0-1.114,3.647A6.287,6.287,0,0,0,42.24,60.4a3.846,3.846,0,0,0,3.546,1.722c2.837,0,4.762-2.229,4.762-5.37C50.547,53.512,48.724,51.182,45.988,51.182Zm-.1,1.317a2.957,2.957,0,0,1,2.128,1.114,5.168,5.168,0,0,1,.811,3.039c0,2.634-1.114,4.255-2.938,4.255s-2.938-1.621-2.938-4.255a5.7,5.7,0,0,1,.709-2.938A2.942,2.942,0,0,1,45.887,52.5Zm5.775,6.686a2.6,2.6,0,0,0,1.115,1.824,4.821,4.821,0,0,0,3.546,1.115c2.533,0,4.255-1.216,4.255-3.14,0-1.722-1.013-2.735-3.141-3.039l-2.026-.406c-1.216-.2-1.722-.709-1.722-1.418,0-1.013.912-1.621,2.33-1.621a2.612,2.612,0,0,1,2.634,1.722l1.52-.405c-.608-1.722-2.026-2.634-4.154-2.634-2.431,0-3.951,1.216-3.951,3.039,0,1.52,1.013,2.634,2.837,2.938l2.229.406c1.114.2,1.722.811,1.722,1.621,0,1.013-1.013,1.722-2.431,1.722a3.99,3.99,0,0,1-2.533-.81,2.755,2.755,0,0,1-.709-1.216l-1.52.3Zm15.3-8a4.651,4.651,0,0,0-3.749,1.824A5.8,5.8,0,0,0,62.1,56.653,7.091,7.091,0,0,0,63.111,60.4a4.064,4.064,0,0,0,3.546,1.722c2.837,0,4.761-2.229,4.761-5.37C71.418,53.512,69.7,51.182,66.96,51.182Zm-.2,1.317a2.987,2.987,0,0,1,2.229,1.114,5.191,5.191,0,0,1,.709,3.039c0,2.634-1.114,4.255-2.938,4.255s-2.837-1.621-2.837-4.255a4.86,4.86,0,0,1,.709-2.938A2.606,2.606,0,0,1,66.757,52.5Zm11.549-1.013H75.774c0-1.114,0-1.216.2-1.621.2-.709.911-1.013,1.925-1.013a3.455,3.455,0,0,1,1.013.1V47.637a9.368,9.368,0,0,0-1.52-.1,2.912,2.912,0,0,0-2.837,1.621,9.081,9.081,0,0,0-.3,2.33H72.431V52.8h1.824v9.118h1.52V52.8h2.533V51.487Zm7.4,9.32a5.834,5.834,0,0,1-1.216.1c-1.114,0-1.722-.506-1.722-1.621V52.8h2.331V51.487H82.764V48.751l-1.52.1-.1,2.634H79.319V52.8h1.824v6.281c0,2.026,1.013,3.14,3.039,3.14.405,0,.811-.1,1.52-.1V60.807h0Zm21.984,9.624V68.506h.607v-.2h-1.519v.2h.608v1.925Zm2.938,0V68.3h-.507l-.607,1.722L108.9,68.3H108.5v2.128h.3V68.607l.709,1.824h.1l.71-1.824v1.824Z" transform="translate(-1.506 -20.224)" fill="#0c0e0f" fill-rule="evenodd"/></g></g><g transform="translate(340.723 498.811)"><g transform="translate(0.277 0.189)" fill="#fff" stroke="#707070" stroke-width="1"><circle cx="92" cy="92" r="92" stroke="none"/><circle cx="92" cy="92" r="91.5" fill="none"/></g><g transform="translate(10.632 50.501)"><ellipse cx="80.845" cy="42.084" rx="80.845" ry="42.084" transform="translate(0 0)" fill="#8993be"/><path d="M35.945,73.139l8.86-44.853H65.292c8.86.554,13.29,4.983,13.29,12.736,0,13.29-10.521,21.042-19.935,20.488H48.681L46.466,73.139ZM50.9,53.2l2.769-16.612h7.2c3.876,0,6.644,1.661,6.644,4.983-.553,9.414-4.983,11.075-9.967,11.629H50.9ZM76.524,61.51l8.86-44.852H95.9L93.689,28.286h9.967c8.86.554,12.182,4.983,11.075,10.521l-3.876,22.7H99.781l3.876-20.488c.553-2.769.553-4.43-3.322-4.43H92.028L87.045,61.51Zm33.622,11.628,8.86-44.853h20.488c8.86.554,13.29,4.983,13.29,12.736,0,13.29-10.521,21.042-19.935,20.488h-9.967l-2.215,11.628ZM125.1,53.2l2.769-16.612h7.2c3.876,0,6.644,1.661,6.644,4.983-.553,9.414-4.983,11.075-9.967,11.629H125.1Z" transform="translate(-13.242 -6.137)" fill="#232531" fill-rule="evenodd"/></g></g><g transform="translate(487.794 342.88)"><g transform="translate(0.206 0.12)" fill="#fff" stroke="#707070" stroke-width="1"><circle cx="92" cy="92" r="92" stroke="none"/><circle cx="92" cy="92" r="91.5" fill="none"/></g><g transform="translate(25.693 30.123)"><path d="M66.114.072C32.377.072,34.483,14.7,34.483,14.7l.037,15.158H66.716v4.551H21.734S.145,31.963.145,66,18.988,98.838,18.988,98.838H30.233v-15.8S29.627,64.2,48.776,64.2H80.707s17.94.29,17.94-17.339V17.712S101.372.072,66.114.072ZM48.362,10.265a5.787,5.787,0,1,1-4.1,1.695A5.787,5.787,0,0,1,48.362,10.265Z" transform="translate(-0.145 -0.072)" fill="url(#i)"/><path d="M98.727,163.092c33.737,0,31.631-14.631,31.631-14.631L130.32,133.3h-32.2v-4.551h44.982S164.7,131.2,164.7,97.16s-18.843-32.834-18.843-32.834H134.607v15.8s.606,18.843-18.542,18.843H84.133s-17.94-.29-17.94,17.339v29.148s-2.724,17.639,32.533,17.639ZM116.479,152.9a5.788,5.788,0,1,1,4.1-1.7,5.787,5.787,0,0,1-4.1,1.7Z" transform="translate(-31.799 -30.887)" fill="url(#j)"/></g></g><g transform="translate(587.909 141.764)"><g transform="translate(0.091 0.236)" fill="#fff" stroke="#707070" stroke-width="1"><circle cx="92" cy="92" r="92" stroke="none"/><circle cx="92" cy="92" r="91.5" fill="none"/></g><path d="M120.014,6.875a60.936,60.936,0,0,1-7.047,12.512A66.2,66.2,0,0,0,66.168,0C29.87,0,0,29.9,0,66.254a66.315,66.315,0,0,0,20.555,48L23,116.422a66.119,66.119,0,0,0,108.6-45.94c1.8-16.877-3.145-38.223-11.584-63.608ZM29.956,114.634a5.665,5.665,0,1,1-4.4-9.246,5.6,5.6,0,0,1,3.558,1.272,5.69,5.69,0,0,1,.842,7.975ZM119.739,94.8c-16.327,21.775-51.2,14.437-73.559,15.485,0,0-3.97.241-7.957.894,0,0,1.5-.636,3.437-1.375,15.691-5.465,23.116-6.531,32.654-11.429,17.96-9.143,35.714-29.148,39.409-49.961-6.84,20.022-27.567,37.226-46.455,44.221-12.941,4.778-36.315,9.418-36.315,9.418l-.945-.5C14.093,93.8,13.612,59.311,42.537,48.174,55.2,43.293,67.32,45.974,81,42.709c14.609-3.472,31.5-14.437,38.378-28.736,7.7,22.875,16.963,58.692.361,80.828Z" transform="translate(26.491 26.579)" fill="#77bc1f"/></g></g></svg>